<svg width="265" height="50" viewBox="0 0 265 50" fill="none" xmlns="http://www.w3.org/2000/svg">
<mask id="mask0_207_434" style="mask-type:alpha" maskUnits="userSpaceOnUse" x="0" y="0" width="265" height="50">
<g clip-path="url(#clip0_207_434)">
<path d="M262.737 22.2337L261.094 23.8839L260.473 24.5096L261.094 25.1352L262.114 26.1616L262.737 26.7854L263.359 26.1616L265 24.5096L262.737 22.2337Z" fill="#C81F04"/>
<path d="M258.421 29.6652L257.177 28.4139L253.889 25.0989L259.404 19.5535L258.782 18.9278L258.383 18.5289L257.761 17.9032L257.135 17.2685L253.985 14.1023L253.364 13.4766L252.742 12.851L252.343 12.4521L251.725 11.8264L246.203 17.381L246.127 17.4553L240.61 23.0026L236.253 18.6286L235.633 18.003L231.755 14.1059L235.09 10.7547L235.71 10.129L236.731 9.10264L237.353 8.47882L240.612 5.20013L243.873 8.47701L238.349 14.0316L240.612 16.3074L241.234 15.6818L241.633 15.2828L242.253 14.6572L246.758 10.129L247.379 9.50341L248.399 8.47701L247.777 7.85318L247.379 7.45242L246.134 6.19752L241.626 1.66937L241.227 1.27042L240.605 0.644784L227.221 14.1023L238.341 25.2839L235.194 28.4592L233.95 29.7105L233.553 30.1113L227.371 36.3259L227.992 36.9515L240.607 49.6365L248.43 41.7698L242.87 36.179L242.796 36.1029L242.255 35.5588L241.635 34.9332L241.236 34.5342L240.614 33.9086L238.35 36.1845L243.911 41.7753L240.614 45.0902L236.695 41.1496L236.298 40.7489L236.075 40.524L235.676 40.125L231.905 36.3313L235.824 32.3926L236.221 31.9918L237.465 30.7405L240.607 27.5525L244.378 31.3444L244.765 31.7325L245 31.97L251.581 38.5873L252.201 37.9616L259.44 30.6825L258.818 30.0569L258.421 29.6652ZM254.884 19.5444L249.362 25.0989L254.922 30.6898L251.59 34.041L246.65 29.0758L246.03 28.4502L242.879 25.2839L247.232 20.9063L247.469 20.6705L247.855 20.2806L248.477 19.6568L251.725 16.3781L254.884 19.5444Z" fill="#C81F04"/>
<path d="M229.01 26.1235L229.633 26.7492L231.276 25.0989L231.896 24.4733L231.276 23.8477L229.633 22.1974L229.01 22.8231L227.991 23.844L227.369 24.4697L227.991 25.0953L229.01 26.1235Z" fill="#C81F04"/>
<path d="M2.26332 23.2337L4.52665 25.5096L2.88551 27.1616L2.26332 27.7854L1.64113 27.1616L0 25.5096L2.26332 23.2337Z" fill="#C81F04"/>
<path d="M5.52395 31.0641L12.3644 37.9425L12.7612 38.3432L13.3834 38.9689L19.9569 32.3517L20.1914 32.1141L20.5791 31.726L21.1995 31.1004L24.3573 27.9269L27.5061 31.0931L28.1337 31.7351L28.5305 32.1359L28.6423 32.2483L28.7559 32.3607L29.1527 32.7615L33.0716 36.7003L29.9173 39.8593L29.2952 40.4849L28.8966 40.8839L28.2744 41.5095L27.654 42.1351L24.3573 45.4501L21.0606 42.1351L24.9795 38.1945L25.5999 37.5689L25.9985 37.17L26.6206 36.5443L24.9795 34.8941L24.3573 34.2739L23.7351 34.8995L23.3366 35.2985L22.7234 35.9187L22.1824 36.4627L22.1084 36.5389L17.5674 41.1051L17.1688 41.5041L16.5484 42.1297L17.1688 42.7553L17.5674 43.1543L18.8117 44.4056L22.7234 48.3516L24.3663 50.0018L24.9867 49.3762L25.3853 48.9772L30.9453 43.3864L31.5603 42.7608L36.5739 37.7194L36.9706 37.3187L37.5928 36.693L31.4106 30.4766L31.0138 30.0758L30.3917 29.4502L29.7695 28.8336L26.6206 25.6673L29.9534 22.3052L30.9742 21.2788L31.5945 20.6532L36.0996 16.1251L36.7199 15.4994L37.1185 15.1005L37.7407 14.4748L37.1185 13.8492L36.7199 13.4502L36.0996 12.8246L31.5224 8.22392L31.0193 7.71072L25.3763 2.04374L24.9777 1.64478L24.3573 1.01915L23.7351 1.64478L23.3366 2.04374L22.7234 2.66937L22.103 3.29501L18.8334 6.57188L18.2148 7.19752L17.5926 7.82315L17.1958 8.22392L16.5737 8.84774L17.1958 9.47338L17.5926 9.87415L22.0976 14.4023L22.7234 15.0279L23.3456 15.6536L23.7442 16.0525L24.3573 16.6836L26.6206 14.4077L25.9985 13.7821L25.6089 13.3777L25.3745 13.1401L21.1003 8.84774L24.3609 5.57087L27.6162 8.84956L28.2383 9.47338L28.8605 10.099L29.2573 10.4998L33.214 14.4766L28.7144 18.9993L28.3141 19.4037L24.3591 23.3806L20.4006 19.4037L20.0038 19.003L18.8406 17.8333L18.7648 17.759L13.8577 12.8264L13.2373 12.2008L12.6241 12.8264L12.2256 13.2254L10.9812 14.4766L7.82334 17.6429L5.56002 19.9188L6.18221 20.5444L7.20116 21.5799L11.084 25.4824L7.78728 28.7883L5.52395 31.0641ZM13.2373 16.7525L16.4961 20.0312L17.1183 20.655L17.5042 21.0449L17.7405 21.2806L18.1372 21.6814L22.094 25.6583L18.314 29.4592L17.6936 30.0849L13.3834 34.4153L10.0506 31.0641L15.6106 25.4733L14.9884 24.844L13.9695 23.8195L13.3455 23.1974L10.0867 19.9188L13.2373 16.7525Z" fill="#C81F04"/>
<path d="M37.0085 26.0989L37.6307 25.4733L37.0085 24.844L35.3656 23.1938L34.7452 23.8195L33.1022 25.4697L34.7452 27.1199L35.3656 27.7455L35.9877 27.1199L37.0085 26.0989Z" fill="#C81F04"/>
<path d="M52.7111 24.1568H53.923L54.3685 23.25C54.5719 22.8685 54.7479 22.4727 54.8951 22.0659C55.0646 21.7032 55.1908 21.4547 55.2756 21.2879C55.3603 21.1211 55.4559 20.9125 55.5786 20.6568L56.8211 18.1579C57.2239 17.3352 57.6926 16.5468 58.2224 15.8004C58.6748 15.1542 59.2452 14.6004 59.9032 14.1684C60.5504 13.7584 61.3026 13.5472 62.0674 13.5609C63.0597 13.5546 64.0425 13.7565 64.9529 14.1539C64.5489 15.2202 64.3211 15.8337 64.2694 15.9945C64.1992 16.3539 64.151 16.7172 64.1251 17.0825C64.0631 17.6037 64.0312 18.1281 64.0295 18.653H63.3767C63.0244 18.5265 62.6789 18.3818 62.3415 18.2196C61.7889 17.9587 61.1846 17.8272 60.5741 17.8351C59.949 17.8308 59.3456 18.0655 58.8861 18.4916C58.299 19.058 57.8021 19.7118 57.4127 20.4301C56.9185 21.2837 56.1971 22.6498 55.2485 24.5285C56.8444 24.8655 58.3836 25.4323 59.8185 26.2114C61.1025 26.9259 62.1695 28.0411 63.0196 29.5572C63.8696 31.0732 64.3156 33.0909 64.3577 35.6104H66.3163V36.9868H57.4397V35.6104H58.7021C58.743 34.7774 58.764 34.185 58.7653 33.8332C58.7782 32.7557 58.6821 31.6796 58.4785 30.6216C58.3074 29.7483 57.9752 28.9149 57.4992 28.1644C57.0179 27.4296 56.375 26.8159 55.62 26.371C54.7206 25.8502 53.7372 25.4923 52.7147 25.3137V35.6104H54.7364V36.9868H44.9436V35.6104H47.6488V15.3979H44.9436V14.0215H54.96V15.3979H52.7111V24.1568Z" fill="#C81F04"/>
<path d="M77.7285 13.1401C77.8223 13.1379 77.9156 13.1545 78.003 13.1891C78.0903 13.2237 78.1699 13.2755 78.237 13.3414C78.3759 13.4738 78.6627 13.7767 79.0973 14.2481C79.8187 14.9953 80.8484 15.9624 82.1866 17.1496C83.5873 18.3767 84.6693 19.6014 85.4328 20.8237C86.1962 22.0459 86.5756 23.5571 86.5708 25.3572C86.6005 26.7425 86.3174 28.1164 85.743 29.3758C85.2768 30.401 84.6537 31.3464 83.8963 32.1776C83.2158 32.8933 81.8331 34.26 79.7483 36.2777C79.3159 36.7261 78.8589 37.1499 78.3795 37.5471C78.1528 37.7478 77.8673 37.8687 77.5662 37.8917C77.3329 37.8917 77.0173 37.7448 76.6194 37.451C76.2214 37.1573 75.4279 36.5032 74.2388 35.4889C73.0702 34.4758 72.258 33.7553 71.8024 33.3273C71.2481 32.7883 70.7418 32.2015 70.2893 31.5737C69.7228 30.8047 69.2747 29.9544 68.9601 29.0512C68.6113 28.0262 68.4417 26.9482 68.4588 25.865C68.4588 22.0665 70.5922 18.4849 74.8592 15.1204C75.3482 14.741 75.8159 14.3348 76.2605 13.9036C76.7185 13.3958 77.2079 13.1414 77.7285 13.1401ZM75.5788 17.4634C74.8216 17.5606 74.1083 17.8754 73.5246 18.3701C72.9466 18.8446 72.4778 19.4396 72.1505 20.114C71.8233 20.7883 71.6454 21.526 71.6292 22.2762C71.6354 22.8304 71.743 23.3788 71.9466 23.8938C72.1941 24.5139 72.5092 25.1045 72.8862 25.6546C73.3378 26.323 73.8324 26.9609 74.3668 27.5642C74.9512 28.2158 75.6786 28.9793 76.549 29.8546C77.6118 30.9112 78.305 31.6607 78.6284 32.1032C78.9533 32.5513 79.1487 33.081 79.1929 33.6338C80.2006 33.2271 81.1043 32.5974 81.8367 31.7913C82.6651 30.9366 83.146 30.0401 83.2795 29.102V27.9958C83.1914 27.5094 83.0218 27.0415 82.7781 26.6121C82.5078 26.121 82.199 25.6523 81.8548 25.2104C81.4941 24.7522 81.0799 24.2529 80.6122 23.7125C80.1445 23.1721 79.5848 22.5452 78.9332 21.8319C78.3489 21.1803 77.8523 20.6278 77.4435 20.1745C77.0347 19.7211 76.7137 19.3499 76.4805 19.061C76.2779 18.8084 76.094 18.5411 75.9304 18.2613C75.7906 18.006 75.6729 17.739 75.5788 17.4634Z" fill="#C81F04"/>
<path d="M102.061 35.6068L98.5096 18.9377C97.7505 20.1055 97.0592 21.3165 96.4392 22.5646C95.9185 23.6593 95.5106 24.8047 95.2219 25.9829C94.9337 27.1127 94.7889 28.2747 94.7909 29.4411C94.8092 30.4507 94.8808 31.4585 95.0055 32.4605C95.1558 33.7625 95.2357 34.5737 95.2453 34.8941V36.5262C95.2449 36.6759 95.201 36.8223 95.1189 36.9473C95.0369 37.0723 94.9204 37.1705 94.7837 37.2298C94.5551 37.3241 94.3091 37.368 94.0623 37.3586C93.6731 37.3451 93.2854 37.302 92.9027 37.2298C92.7007 37.2099 92.4157 37.199 92.046 37.199C91.5898 37.199 91.2453 37.2099 91.0127 37.2298C90.6628 37.2733 90.4355 37.2951 90.3291 37.2951C90.1525 37.3056 89.9764 37.266 89.8211 37.1807C89.6658 37.0954 89.5375 36.9679 89.4509 36.8127C89.2657 36.4911 89.1725 35.8613 89.1713 34.9231C89.1501 33.4503 89.3707 31.9841 89.8242 30.5836C90.2203 29.3715 90.7655 28.214 91.4473 27.138C92.1037 26.1225 93.0518 24.7769 94.2913 23.1013C95.5213 21.4475 96.4007 20.1376 96.9297 19.1716C97.4422 18.2717 97.7161 17.2545 97.7251 16.2175C97.7188 15.944 97.6977 15.6709 97.662 15.3997H95.2453V14.0215H104.576V15.3979H102.746L106.885 34.6457L110.517 15.3979H109.074V14.0215H117.848V15.3979H115.723L120.109 35.6068H122.355V36.9832H113.606V35.6068H115.038L111.361 18.3447L108.16 35.6068H109.895V36.9832H100.373V35.6068H102.061Z" fill="#C81F04"/>
<path d="M143.448 36.9832H133.303V35.6068H136.009V32.6763C135.574 32.7941 135.148 32.9156 134.735 33.0389C134.212 33.2044 133.68 33.343 133.143 33.4542C132.606 33.5416 132.063 33.5793 131.52 33.5667C130.347 33.5676 129.187 33.3166 128.119 32.8304C127.07 32.3735 126.154 31.6574 125.455 30.7486C124.777 29.8667 124.416 28.7801 124.43 27.6657C124.419 26.7739 124.592 25.8894 124.938 25.0682C125.285 24.247 125.796 23.5069 126.441 22.8946C127.966 21.4307 129.644 20.1386 131.448 19.0411C132.401 18.4366 133.119 17.9669 133.601 17.632C134.083 17.2971 134.886 16.6673 136.01 15.7424V15.3979H133.275V14.0215H143.482V15.3979H140.741V15.7188C141.888 16.6473 142.679 17.2717 143.114 17.5921C143.549 17.9125 144.282 18.3955 145.311 19.0411C147.113 20.1391 148.79 21.4332 150.312 22.9C150.955 23.5131 151.466 24.2535 151.811 25.0746C152.156 25.8957 152.328 26.7798 152.317 27.6712C152.332 28.7847 151.973 29.8708 151.298 30.754C150.603 31.6642 149.688 32.3808 148.64 32.8358C147.575 33.3209 146.419 33.5719 145.249 33.5721C144.711 33.5843 144.172 33.5467 143.641 33.4597C143.258 33.3847 142.717 33.2463 142.018 33.0444C141.56 32.9048 141.134 32.7833 140.741 32.6817V35.6122H143.446L143.448 36.9832ZM136.01 17.3364C134.95 18.2323 134.079 18.9951 133.399 19.625C132.741 20.2325 132.131 20.8909 131.576 21.5944C131.059 22.2485 130.634 22.971 130.313 23.7415C130.002 24.4974 129.844 25.3081 129.848 26.1261C129.848 27.0263 130.021 27.918 130.358 28.752C130.681 29.5844 131.22 30.3146 131.918 30.8665C132.652 31.4326 133.558 31.7266 134.483 31.6988C134.996 31.7009 135.508 31.6474 136.01 31.5392V17.3364ZM140.741 17.3364V31.5392C141.245 31.6464 141.759 31.6999 142.274 31.6988C143.785 31.6988 144.934 31.1276 145.722 29.9851C146.507 28.8543 146.92 27.5049 146.903 26.1261C146.91 25.054 146.649 23.9973 146.146 23.0524C145.612 22.0661 144.936 21.1647 144.14 20.3776C143.322 19.5567 142.188 18.543 140.741 17.3364Z" fill="#C81F04"/>
<path d="M164.26 13.1401C164.354 13.1377 164.447 13.1543 164.535 13.1889C164.623 13.2234 164.703 13.2753 164.77 13.3414C164.909 13.4738 165.196 13.7767 165.63 14.2481C166.352 14.9953 167.381 15.9624 168.719 17.1496C170.12 18.3767 171.202 19.6014 171.966 20.8237C172.729 22.0459 173.108 23.5571 173.104 25.3572C173.133 26.7425 172.85 28.1164 172.276 29.3758C171.807 30.3958 171.182 31.3361 170.426 32.1631C169.746 32.8788 168.364 34.2455 166.278 36.2632C165.845 36.7122 165.387 37.136 164.907 37.5326C164.681 37.7335 164.396 37.8545 164.095 37.8772C163.863 37.8772 163.548 37.7303 163.149 37.4365C162.749 37.1427 161.956 36.4887 160.768 35.4744C159.599 34.4613 158.787 33.7407 158.332 33.3128C157.777 32.7738 157.271 32.187 156.819 31.5592C156.252 30.7902 155.804 29.9398 155.489 29.0367C155.14 28.0118 154.97 26.9338 154.986 25.8505C154.986 22.052 157.12 18.4704 161.388 15.1059C161.877 14.7255 162.344 14.3194 162.79 13.8891C163.25 13.391 163.74 13.1413 164.26 13.1401ZM162.11 17.4634C161.353 17.561 160.641 17.8758 160.058 18.3701C159.478 18.8447 159.008 19.4406 158.68 20.1165C158.353 20.7924 158.176 21.5319 158.162 22.2835C158.167 22.8378 158.275 23.3863 158.48 23.9011C158.727 24.5211 159.042 25.1117 159.419 25.6619C159.871 26.3278 160.366 26.9632 160.9 27.5642C161.484 28.2158 162.211 28.9793 163.082 29.8546C164.145 30.9112 164.838 31.6607 165.161 32.1032C165.485 32.5517 165.681 33.0812 165.726 33.6338C166.733 33.228 167.637 32.5981 168.368 31.7913C169.197 30.9366 169.678 30.0401 169.811 29.102V27.9958C169.722 27.5094 169.553 27.0415 169.309 26.6121C169.039 26.121 168.73 25.6523 168.386 25.2104C168.025 24.7522 167.611 24.2529 167.143 23.7125C166.676 23.1721 166.116 22.5452 165.464 21.8319L163.975 20.1744C163.566 19.7211 163.245 19.3499 163.012 19.061C162.812 18.8081 162.631 18.5408 162.471 18.2613C162.328 18.0059 162.208 17.739 162.11 17.4634Z" fill="#C81F04"/>
<path d="M183.481 28.2243V35.6068H186.186V36.9832H175.71V35.6068H178.415V23.5964C178.415 21.8894 178.447 20.2295 178.51 18.6167C179.129 17.0817 180.217 15.7838 181.616 14.9101C183.04 14.008 184.694 13.5382 186.377 13.5572C188.097 13.5572 189.579 13.8456 190.821 14.4222C191.972 14.9223 192.956 15.7443 193.656 16.7906C194.3 17.7828 194.638 18.9443 194.628 20.1291C194.641 21.2493 194.394 22.3571 193.906 23.3643C193.464 24.2944 192.779 25.0856 191.923 25.6528C191.089 26.2061 190.11 26.4966 189.111 26.487C188.679 26.5004 188.249 26.439 187.838 26.3057C187.359 26.1083 186.891 25.8843 186.437 25.6347C186.096 25.4642 185.858 25.3464 185.715 25.272L183.481 28.2243ZM183.481 26.2549L185.574 23.5964C185.777 23.7574 185.999 23.892 186.235 23.9972C186.403 24.0844 186.587 24.1385 186.776 24.1568C187.295 24.1568 187.78 23.8684 188.218 23.2917C188.657 22.7151 188.887 21.6379 188.887 20.0584C188.887 18.4789 188.707 17.2294 188.328 16.3118C187.95 15.3942 187.208 14.9336 186.148 14.9336C185.351 14.9336 184.762 15.222 184.381 15.7986C183.965 16.4265 183.708 17.1466 183.632 17.8968C183.526 18.939 183.478 19.9864 183.488 21.034V26.2549H183.481Z" fill="#C81F04"/>
<path d="M206.173 35.6068V15.3979H204.024C203.518 15.376 203.015 15.469 202.55 15.6699C202.19 15.8536 201.842 16.2913 201.508 16.9828C201.174 17.6743 200.829 18.7418 200.473 20.1853C200.362 20.6351 200.221 21.0768 200.051 21.5073C199.95 21.7267 199.73 21.8356 199.389 21.8356C199.009 21.8356 198.762 21.6995 198.649 21.4275C198.521 21.0702 198.454 20.6939 198.449 20.3141C198.402 19.3388 198.204 18.377 197.861 17.4634C197.777 17.2216 197.591 16.7761 197.304 16.1269C197.017 15.4777 196.873 15.0376 196.873 14.8067C196.873 14.6457 196.906 14.4864 196.967 14.3379C197.029 14.1895 197.12 14.0548 197.234 13.9417C197.474 13.6866 197.835 13.5584 198.316 13.5572C198.617 13.5824 198.915 13.6359 199.207 13.7168C199.654 13.8135 200.129 13.8939 200.631 13.958C201.311 14.0307 201.995 14.0628 202.678 14.0541H203.301C203.533 14.0324 203.718 14.0215 203.858 14.0215H213.539C213.677 14.0215 213.868 14.0324 214.112 14.0541H214.718C215.405 14.0645 216.091 14.0342 216.774 13.9634C217.29 13.8982 217.771 13.8178 218.217 13.7223C218.503 13.641 218.797 13.5875 219.093 13.5627C219.574 13.5627 219.935 13.6908 220.175 13.9471C220.405 14.1761 220.534 14.4872 220.536 14.8121C220.536 15.0672 220.401 15.4964 220.13 16.0997C219.858 16.7035 219.67 17.1605 219.564 17.4688C219.205 18.376 218.993 19.3356 218.938 20.3105C218.938 21.3248 218.638 21.8319 218.036 21.8319C217.923 21.8397 217.809 21.8197 217.705 21.7736C217.6 21.7275 217.509 21.6566 217.438 21.5672C217.303 21.385 217.203 21.1789 217.144 20.9597C217.08 20.7288 216.921 20.1122 216.666 19.11C216.357 17.9784 216.023 17.1454 215.663 16.6111C215.387 16.1497 214.963 15.7971 214.46 15.6119C213.873 15.4493 213.265 15.376 212.657 15.3942H211.256V35.6068H213.961V36.9832H203.483V35.6068H206.173Z" fill="#C81F04"/>
<path d="M118.371 0H113.098V8.07341H116.616V2.01654L119.558 8.07341H121.06L123.965 2.00566V8.07341H127.673V0H122.784L120.557 4.69861L118.371 0Z" fill="#0F0000"/>
<path d="M128.766 0L131.844 5.65066C132.061 6.0333 132.11 6.30712 131.998 6.5066L131.862 6.79675C131.809 6.8636 131.749 6.92441 131.682 6.97809C131.572 7.04529 131.449 7.08739 131.321 7.10141C131.127 7.12819 130.931 7.14032 130.735 7.13768H129.918V8.07885H132.541C133.623 8.07885 134.398 7.99906 134.863 7.84491C135.278 7.72139 135.628 7.43955 135.839 7.0597L139.832 0H136.16L134.501 4.01313L132.766 0H128.766Z" fill="#0F0000"/>
<path d="M144.99 0.861381H148V8.07341H151.978V0H141.011V8.07341H144.99V0.861381Z" fill="#0F0000"/>
<path d="M106.207 4.0766H44.7092V4.98332H106.207V4.0766Z" fill="#0F0000"/>
<path d="M220.291 4.01676H158.793V4.92347H220.291V4.01676Z" fill="#0F0000"/>
<path d="M220.291 45.7257H44.7092V46.6324H220.291V45.7257Z" fill="#0F0000"/>
</g>
</mask>
<g mask="url(#mask0_207_434)">
<rect width="265" height="50" fill="#490D0C"/>
</g>
<defs>
<clipPath id="clip0_207_434">
<rect width="265" height="50" fill="white"/>
</clipPath>
</defs>
</svg>
