<svg width="656" height="850" viewBox="0 0 656 850" fill="none" xmlns="http://www.w3.org/2000/svg">
<g opacity="0.05">
<path d="M39.8155 374.565L68.3204 403.196L79.0836 414.051L68.3204 424.906L50.6105 442.714L39.8155 453.537L29.0206 442.714L0.546936 414.051L39.8155 374.565Z" fill="#C81F04"/>
<path d="M114.691 503.5L136.281 481.79L193.322 424.276L97.6385 328.063L108.433 317.208L115.348 310.286L126.143 299.432L137.001 288.42L191.663 233.486L202.427 222.631L213.222 211.776L220.137 204.855L230.869 194L326.678 290.371L327.992 291.66L423.706 387.905L499.302 312.017L510.065 301.162L577.338 233.549L519.484 175.405L508.72 164.551L491.011 146.743L480.215 135.919L423.675 79.0346L367.104 135.888L462.944 232.259L423.675 271.745L412.881 260.89L405.965 253.968L395.202 243.113L317.041 164.551L306.277 153.696L288.567 135.888L299.362 125.065L306.277 118.112L327.867 96.3392L406.091 17.7765L413.005 10.8547L423.8 0L656 233.486L463.069 427.486L517.669 482.577L539.259 504.286L546.142 511.24L653.403 619.063L642.639 629.917L423.769 850L288.035 713.514L384.501 616.514L385.784 615.193L395.17 605.754L405.934 594.899L412.849 587.978L423.644 577.123L462.913 616.609L366.446 713.609L423.644 771.123L491.636 702.754L498.52 695.801L502.4 691.899L509.315 684.977L574.741 619.157L506.749 550.82L499.865 543.867L478.275 522.157L423.769 466.846L358.343 532.634L351.615 539.367L347.548 543.489L233.372 658.297L222.609 647.442L97.0127 521.15L107.808 510.296L114.691 503.5ZM176.05 327.906L271.858 424.276L175.393 521.276L233.216 579.42L318.918 493.274L329.681 482.42L384.344 427.486L308.812 351.534L304.713 347.444L298.017 340.68L287.222 329.856L230.869 272.972L176.05 327.906Z" fill="#C81F04"/>
<path d="M624.961 442.053L614.166 452.908L585.661 424.276L574.898 413.422L585.661 402.567L614.166 373.936L624.961 384.79L642.64 402.504L653.434 413.359L642.64 424.213L624.961 442.053Z" fill="#C81F04"/>
</g>
</svg>
