<svg width="31" height="32" viewBox="0 0 31 32" fill="none" xmlns="http://www.w3.org/2000/svg">
<path d="M1.00871 29.435C0.618189 29.0445 0.618189 28.4113 1.00871 28.0208L27.8788 1.15076C28.2693 0.760233 28.9025 0.760233 29.293 1.15076L30.7072 2.56497C31.0977 2.9555 31.0977 3.58866 30.7072 3.97918L3.83714 30.8492C3.44662 31.2398 2.81345 31.2398 2.42293 30.8492L1.00871 29.435Z" fill="#AEC4B4"/>
<path d="M29.293 30.8492C28.9025 31.2398 28.2693 31.2398 27.8788 30.8492L1.00871 3.97918C0.618189 3.58866 0.618189 2.9555 1.00871 2.56497L2.42293 1.15076C2.81345 0.760233 3.44662 0.760233 3.83714 1.15076L30.7072 28.0208C31.0977 28.4113 31.0977 29.0445 30.7072 29.435L29.293 30.8492Z" fill="#AEC4B4"/>
</svg>
