<svg width="656" height="850" viewBox="0 0 656 850" fill="none" xmlns="http://www.w3.org/2000/svg">
<g opacity="0.05">
<path d="M616.185 374.565L587.68 403.196L576.916 414.051L587.68 424.906L605.39 442.714L616.185 453.537L626.979 442.714L655.453 414.051L616.185 374.565Z" fill="#C81F04"/>
<path d="M541.309 503.5L519.719 481.79L462.678 424.276L558.361 328.063L547.567 317.208L540.652 310.286L529.857 299.432L518.999 288.42L464.337 233.486L453.573 222.631L442.778 211.776L435.863 204.855L425.131 194L329.322 290.371L328.008 291.66L232.294 387.905L156.698 312.017L145.935 301.162L78.6621 233.549L136.516 175.405L147.28 164.551L164.989 146.743L175.785 135.919L232.325 79.0346L288.896 135.888L193.056 232.259L232.325 271.745L243.119 260.89L250.035 253.968L260.798 243.113L338.959 164.551L349.723 153.696L367.433 135.888L356.638 125.065L349.723 118.112L328.133 96.3392L249.909 17.7765L242.995 10.8547L232.2 0L0 233.486L192.931 427.486L138.331 482.577L116.741 504.286L109.858 511.24L2.59708 619.063L13.3608 629.917L232.231 850L367.965 713.514L271.499 616.514L270.216 615.193L260.83 605.754L250.066 594.899L243.151 587.978L232.356 577.123L193.087 616.609L289.554 713.609L232.356 771.123L164.364 702.754L157.48 695.801L153.6 691.899L146.685 684.977L81.2587 619.157L149.251 550.82L156.135 543.867L177.725 522.157L232.231 466.846L297.657 532.634L304.385 539.367L308.452 543.489L422.628 658.297L433.391 647.442L558.987 521.15L548.192 510.296L541.309 503.5ZM479.95 327.906L384.142 424.276L480.607 521.276L422.784 579.42L337.082 493.274L326.319 482.42L271.656 427.486L347.188 351.534L351.287 347.444L357.983 340.68L368.778 329.856L425.131 272.972L479.95 327.906Z" fill="#C81F04"/>
<path d="M31.0389 442.053L41.8342 452.908L70.3388 424.276L81.1022 413.422L70.3388 402.567L41.8342 373.936L31.0389 384.79L13.3603 402.504L2.56558 413.359L13.3603 424.213L31.0389 442.053Z" fill="#C81F04"/>
</g>
</svg>
