<svg width="212" height="40" viewBox="0 0 212 40" fill="none" xmlns="http://www.w3.org/2000/svg">
<path d="M210.189 17.7871L208.875 19.1073L208.379 19.6078L208.875 20.1083L209.692 20.9295L210.189 21.4285L210.687 20.9295L212 19.6078L210.189 17.7871Z" fill="#C81F04"/>
<path d="M206.737 23.7323L205.741 22.7313L203.111 20.0793L207.523 15.6429L207.025 15.1424L206.707 14.8232L206.209 14.3227L205.708 13.815L203.188 11.2819L202.691 10.7814L202.194 10.2809L201.875 9.96173L201.38 9.46122L196.962 13.9049L196.902 13.9644L192.488 18.4023L189.002 14.903L188.506 14.4025L185.404 11.2848L188.072 8.60382L188.568 8.10331L189.385 7.28218L189.883 6.78312L192.49 4.16014L195.098 6.78167L190.679 11.2253L192.49 13.046L192.987 12.5455L193.306 12.2264L193.803 11.7259L197.407 8.10331L197.903 7.6028L198.719 6.78167L198.222 6.2826L197.903 5.96199L196.907 4.95806L193.3 1.33551L192.982 1.01634L192.484 0.515832L181.777 11.2819L190.673 20.2273L188.156 22.7676L187.16 23.7686L186.843 24.0892L181.897 29.061L182.393 29.5615L192.485 39.7096L198.744 33.4162L194.296 28.9435L194.237 28.8825L193.804 28.4473L193.308 27.9468L192.989 27.6276L192.491 27.1271L190.68 28.9478L195.128 33.4205L192.491 36.0725L189.356 32.92L189.039 32.5994L188.86 32.4195L188.541 32.1003L185.524 29.0653L188.659 25.9143L188.977 25.5937L189.972 24.5927L192.485 22.0422L195.502 25.0758L195.812 25.3862L196 25.5763L201.264 30.8701L201.761 30.3696L207.552 24.5462L207.054 24.0457L206.737 23.7323ZM203.908 15.6357L199.49 20.0793L203.938 24.552L201.272 27.233L197.32 23.2609L196.824 22.7603L194.303 20.2273L197.786 16.7252L197.975 16.5366L198.284 16.2247L198.781 15.7256L201.38 13.1026L203.908 15.6357Z" fill="#C81F04"/>
<path d="M183.208 20.899L183.706 21.3995L185.02 20.0793L185.517 19.5788L185.02 19.0783L183.706 17.7581L183.208 18.2586L182.393 19.0754L181.895 19.5759L182.393 20.0764L183.208 20.899Z" fill="#C81F04"/>
<path d="M1.81066 18.5871L3.62132 20.4078L2.30841 21.7295L1.81066 22.2285L1.31291 21.7295L0 20.4078L1.81066 18.5871Z" fill="#C81F04"/>
<path d="M4.41916 24.8515L9.89153 30.3543L10.2089 30.6749L10.7067 31.1754L15.9655 25.8816L16.1531 25.6915L16.4633 25.3811L16.9596 24.8805L19.4859 22.3417L22.0049 24.8747L22.507 25.3883L22.8244 25.7089L22.9138 25.7989L23.0047 25.8888L23.3221 26.2094L26.4573 29.3605L23.9339 31.8877L23.4361 32.3882L23.1173 32.7074L22.6195 33.2079L22.1232 33.7084L19.4859 36.3604L16.8485 33.7084L19.9836 30.5559L20.4799 30.0554L20.7988 29.7362L21.2965 29.2357L19.9836 27.9155L19.4859 27.4194L18.9881 27.9199L18.6693 28.239L18.1787 28.7352L17.7459 29.1704L17.6867 29.2314L14.0539 32.8844L13.735 33.2035L13.2387 33.7041L13.735 34.2046L14.0539 34.5237L15.0494 35.5248L18.1787 38.6816L19.4931 40.0018L19.9894 39.5013L20.3082 39.1821L24.7562 34.7094L25.2482 34.2089L29.2591 30.1758L29.5765 29.8552L30.0742 29.3547L25.1285 24.3815L24.8111 24.0609L24.3133 23.5603L23.8156 23.0671L21.2965 20.5341L23.9627 17.8444L24.7793 17.0232L25.2756 16.5227L28.8796 12.9002L29.376 12.3996L29.6948 12.0805L30.1926 11.58L29.6948 11.0795L29.376 10.7603L28.8796 10.2598L25.2179 6.5792L24.8154 6.16863L20.301 1.63501L19.9822 1.31584L19.4859 0.815327L18.9881 1.31584L18.6693 1.63501L18.1787 2.13552L17.6824 2.63603L15.0667 5.25756L14.5718 5.75807L14.0741 6.25858L13.7567 6.5792L13.2589 7.07826L13.7567 7.57877L14.0741 7.89939L17.6781 11.5219L18.1787 12.0225L18.6765 12.523L18.9953 12.8421L19.4859 13.347L21.2965 11.5263L20.7988 11.0258L20.4871 10.7023L20.2996 10.5122L16.8802 7.07826L19.4887 4.45674L22.0929 7.07971L22.5907 7.57877L23.0884 8.07928L23.4058 8.3999L26.5712 11.5814L22.9716 15.1996L22.6513 15.5231L19.4873 18.7047L16.3205 15.5231L16.003 15.2025L15.0725 14.2668L15.0119 14.2073L11.0861 10.2612L10.5898 9.76072L10.0993 10.2612L9.78044 10.5804L8.78494 11.5814L6.25868 14.1144L4.44802 15.9352L4.94577 16.4357L5.76092 17.264L8.86718 20.3861L6.22982 23.0308L4.41916 24.8515ZM10.5898 13.4021L13.1969 16.0251L13.6946 16.5242L14.0034 16.8361L14.1924 17.0247L14.5098 17.3453L17.6752 20.5268L14.6512 23.5676L14.1549 24.0681L10.7067 27.5325L8.04048 24.8515L12.4885 20.3788L11.9907 19.8754L11.1756 19.0557L10.6764 18.5581L8.06933 15.9352L10.5898 13.4021Z" fill="#C81F04"/>
<path d="M29.6068 20.8793L30.1045 20.3788L29.6068 19.8754L28.2924 18.5552L27.7961 19.0557L26.4818 20.3759L27.7961 21.6961L28.2924 22.1966L28.7902 21.6961L29.6068 20.8793Z" fill="#C81F04"/>
<path d="M42.1689 19.3256H43.1384L43.4948 18.6002C43.6575 18.295 43.7983 17.9784 43.916 17.6529C44.0517 17.3627 44.1527 17.1639 44.2205 17.0305C44.2883 16.897 44.3647 16.7302 44.4628 16.5256L45.4569 14.5265C45.7791 13.8683 46.154 13.2376 46.5779 12.6405C46.9398 12.1235 47.3961 11.6804 47.9226 11.3348C48.4403 11.0068 49.042 10.8379 49.6539 10.8488C50.4478 10.8438 51.234 11.0053 51.9623 11.3232C51.6391 12.1762 51.4569 12.6671 51.4155 12.7957C51.3594 13.0832 51.3208 13.3739 51.3001 13.6662C51.2505 14.0831 51.225 14.5026 51.2236 14.9225H50.7013C50.4195 14.8213 50.1431 14.7056 49.8732 14.5758C49.4311 14.3671 48.9477 14.2619 48.4593 14.2682C47.9592 14.2648 47.4765 14.4525 47.1089 14.7934C46.6392 15.2465 46.2417 15.7696 45.9301 16.3443C45.5348 17.0271 44.9577 18.12 44.1988 19.623C45.4755 19.8926 46.7069 20.346 47.8548 20.9693C48.882 21.5409 49.7356 22.4331 50.4157 23.6459C51.0957 24.8588 51.4525 26.473 51.4862 28.4886H53.053V29.5897H45.9518V28.4886H46.9617C46.9944 27.8222 47.0112 27.3483 47.0122 27.0668C47.0225 26.2048 46.9457 25.3439 46.7828 24.4975C46.6459 23.7989 46.3802 23.1321 45.9994 22.5318C45.6143 21.9439 45.1 21.4529 44.496 21.097C43.7765 20.6803 42.9898 20.394 42.1718 20.2512V28.4886H43.7891V29.5897H35.9549V28.4886H38.1191V12.3184H35.9549V11.2173H43.968V12.3184H42.1689V19.3256Z" fill="#C81F04"/>
<path d="M62.1828 10.5122C62.2578 10.5104 62.3325 10.5237 62.4024 10.5514C62.4723 10.579 62.5359 10.6205 62.5896 10.6732C62.7007 10.7792 62.9301 11.0214 63.2778 11.3986C63.8549 11.9963 64.6787 12.7701 65.7493 13.7198C66.8698 14.7015 67.7355 15.6813 68.3462 16.6591C68.957 17.6369 69.2605 18.8459 69.2566 20.286C69.2804 21.3942 69.054 22.4933 68.5944 23.5009C68.2214 24.321 67.7229 25.0774 67.117 25.7423C66.5726 26.3149 65.4665 27.4082 63.7987 29.0225C63.4527 29.3812 63.0871 29.7202 62.7036 30.038C62.5222 30.1985 62.2938 30.2952 62.0529 30.3136C61.8663 30.3136 61.6139 30.1961 61.2955 29.9611C60.9771 29.7261 60.3423 29.2028 59.391 28.3914C58.4561 27.5809 57.8064 27.0044 57.4419 26.6621C56.9985 26.2309 56.5934 25.7614 56.2314 25.2592C55.7783 24.644 55.4198 23.9637 55.1681 23.2412C54.8891 22.4212 54.7534 21.5588 54.767 20.6922C54.767 17.6533 56.4738 14.7881 59.8874 12.0964C60.2785 11.7929 60.6528 11.4679 61.0084 11.123C61.3748 10.7168 61.7663 10.5132 62.1828 10.5122ZM60.463 13.9708C59.8573 14.0486 59.2867 14.3005 58.8197 14.6962C58.3573 15.0758 57.9822 15.5518 57.7204 16.0913C57.4587 16.6308 57.3164 17.221 57.3034 17.8211C57.3083 18.2645 57.3944 18.7032 57.5573 19.1152C57.7553 19.6113 58.0074 20.0837 58.309 20.5239C58.6702 21.0586 59.0659 21.5689 59.4935 22.0516C59.9609 22.5729 60.5428 23.1836 61.2392 23.8839C62.0895 24.7292 62.644 25.3288 62.9027 25.6828C63.1627 26.0413 63.3189 26.465 63.3543 26.9073C64.1605 26.582 64.8834 26.0782 65.4694 25.4333C66.1321 24.7495 66.5168 24.0323 66.6236 23.2818V22.3968C66.5531 22.0077 66.4175 21.6334 66.2225 21.2899C66.0062 20.897 65.7592 20.522 65.4838 20.1685C65.1953 19.8019 64.8639 19.4025 64.4897 18.9701C64.1156 18.5378 63.6679 18.0363 63.1465 17.4657C62.6791 16.9444 62.2818 16.5024 61.9548 16.1397C61.6278 15.777 61.371 15.4801 61.1844 15.2489C61.0223 15.0468 60.8752 14.833 60.7444 14.6092C60.6325 14.4049 60.5384 14.1913 60.463 13.9708Z" fill="#C81F04"/>
<path d="M81.6484 28.4857L78.8077 15.1503C78.2004 16.0845 77.6473 17.0533 77.1514 18.0518C76.7348 18.9276 76.4085 19.8439 76.1775 20.7865C75.947 21.6904 75.8311 22.62 75.8327 23.5531C75.8473 24.3608 75.9046 25.1671 76.0044 25.9686C76.1246 27.0103 76.1886 27.6592 76.1963 27.9155V29.2212C76.1959 29.341 76.1608 29.4581 76.0951 29.5581C76.0295 29.6581 75.9363 29.7366 75.8269 29.7841C75.6441 29.8595 75.4473 29.8947 75.2498 29.8871C74.9385 29.8763 74.6283 29.8419 74.3221 29.7841C74.1605 29.7682 73.9326 29.7594 73.6368 29.7594C73.2718 29.7594 72.9962 29.7682 72.8101 29.7841C72.5302 29.8189 72.3484 29.8363 72.2633 29.8363C72.122 29.8448 71.9812 29.8131 71.8569 29.7448C71.7327 29.6766 71.63 29.5746 71.5607 29.4504C71.4126 29.1932 71.338 28.6893 71.3371 27.9387C71.3201 26.7605 71.4966 25.5875 71.8594 24.4671C72.1762 23.4974 72.6124 22.5714 73.1578 21.7106C73.683 20.8982 74.4414 19.8217 75.4331 18.4812C76.417 17.1581 77.1206 16.1102 77.5438 15.3374C77.9538 14.6175 78.1729 13.8037 78.1801 12.9741C78.175 12.7553 78.1582 12.5369 78.1296 12.3199H76.1963V11.2173H83.6611V12.3184H82.1967L85.5078 27.7168L88.4135 12.3184H87.2593V11.2173H94.2783V12.3184H92.5788L96.0875 28.4857H97.8838V29.5868H90.885V28.4857H92.0305L89.0887 14.6759L86.5278 28.4857H87.9158V29.5868H80.298V28.4857H81.6484Z" fill="#C81F04"/>
<path d="M114.758 29.5868H106.643V28.4857H108.807V26.1412C108.459 26.2355 108.119 26.3327 107.788 26.4314C107.369 26.5638 106.944 26.6746 106.514 26.7636C106.085 26.8335 105.651 26.8636 105.216 26.8536C104.277 26.8544 103.35 26.6535 102.495 26.2646C101.656 25.8991 100.923 25.3261 100.364 24.5991C99.8217 23.8935 99.5329 23.0243 99.5444 22.1328C99.5355 21.4193 99.6739 20.7117 99.9508 20.0547C100.228 19.3978 100.637 18.8057 101.153 18.3158C102.373 17.1447 103.716 16.111 105.158 15.233C105.921 14.7494 106.495 14.3736 106.881 14.1057C107.266 13.8378 107.909 13.3339 108.808 12.594V12.3184H106.62V11.2173H114.786V12.3184H112.593V12.5752C113.51 13.318 114.143 13.8175 114.491 14.0738C114.84 14.3301 115.425 14.7165 116.249 15.233C117.691 16.1114 119.032 17.1467 120.249 18.3202C120.764 18.8107 121.173 19.403 121.449 20.0599C121.725 20.7168 121.863 21.424 121.854 22.1371C121.865 23.028 121.578 23.8968 121.039 24.6034C120.482 25.3316 119.75 25.9049 118.912 26.2689C118.06 26.657 117.135 26.8578 116.2 26.8579C115.769 26.8677 115.338 26.8376 114.913 26.768C114.607 26.708 114.174 26.5973 113.614 26.4358C113.248 26.324 112.907 26.2268 112.593 26.1456V28.49H114.757L114.758 29.5868ZM108.808 13.8693C107.96 14.5859 107.264 15.1962 106.719 15.7001C106.193 16.1861 105.705 16.7129 105.261 17.2757C104.847 17.799 104.507 18.3769 104.251 18.9934C104.002 19.5981 103.875 20.2466 103.878 20.9011C103.879 21.6213 104.017 22.3346 104.287 23.0018C104.545 23.6678 104.976 24.2519 105.535 24.6934C106.122 25.1463 106.847 25.3815 107.586 25.3593C107.997 25.3609 108.407 25.3181 108.808 25.2316V13.8693ZM112.593 13.8693V25.2316C112.996 25.3174 113.407 25.3602 113.819 25.3593C115.028 25.3593 115.948 24.9023 116.578 23.9883C117.205 23.0836 117.536 22.0041 117.523 20.9011C117.528 20.0434 117.32 19.198 116.917 18.4421C116.49 17.653 115.949 16.9319 115.312 16.3022C114.657 15.6455 113.751 14.8345 112.593 13.8693Z" fill="#C81F04"/>
<path d="M131.408 10.5122C131.483 10.5103 131.558 10.5235 131.628 10.5512C131.698 10.5789 131.762 10.6203 131.816 10.6732C131.927 10.7791 132.156 11.0214 132.504 11.3986C133.081 11.9963 133.905 12.7701 134.976 13.7198C136.096 14.7015 136.962 15.6813 137.573 16.6591C138.183 17.6369 138.487 18.8459 138.483 20.286C138.507 21.3942 138.28 22.4933 137.821 23.5009C137.445 24.3168 136.946 25.0691 136.34 25.7307C135.797 26.3032 134.691 27.3966 133.022 29.0109C132.676 29.37 132.31 29.7091 131.926 30.0264C131.745 30.187 131.517 30.2839 131.276 30.302C131.091 30.302 130.838 30.1845 130.519 29.9495C130.2 29.7145 129.565 29.1912 128.614 28.3798C127.68 27.5693 127.03 26.9928 126.665 26.6505C126.222 26.2192 125.817 25.7498 125.455 25.2476C125.002 24.6324 124.643 23.9521 124.392 23.2296C124.112 22.4097 123.976 21.5472 123.989 20.6806C123.989 17.6417 125.696 14.7765 129.111 12.0848C129.501 11.7805 129.876 11.4556 130.232 11.1114C130.6 10.7129 130.992 10.5132 131.408 10.5122ZM129.688 13.9708C129.083 14.0489 128.513 14.3007 128.046 14.6962C127.582 15.0759 127.206 15.5527 126.944 16.0934C126.682 16.634 126.541 17.2256 126.53 17.8269C126.534 18.2704 126.62 18.7092 126.784 19.121C126.982 19.6171 127.234 20.0896 127.535 20.5297C127.897 21.0624 128.292 21.5708 128.72 22.0516C129.187 22.5729 129.769 23.1836 130.466 23.8839C131.316 24.7292 131.87 25.3288 132.129 25.6828C132.388 26.0416 132.545 26.4652 132.581 26.9072C133.387 26.5826 134.109 26.0787 134.694 25.4333C135.358 24.7495 135.743 24.0323 135.848 23.2818V22.3968C135.778 22.0077 135.642 21.6334 135.447 21.2899C135.231 20.897 134.984 20.522 134.709 20.1685C134.42 19.8019 134.089 19.4025 133.715 18.9701C133.34 18.5378 132.893 18.0363 132.371 17.4657L131.18 16.1397C130.853 15.777 130.596 15.4801 130.409 15.2489C130.25 15.0466 130.105 14.8328 129.976 14.6092C129.863 14.4049 129.766 14.1913 129.688 13.9708Z" fill="#C81F04"/>
<path d="M146.785 22.5796V28.4857H148.949V29.5868H140.568V28.4857H142.732V18.8773C142.732 17.5116 142.757 16.1837 142.808 14.8935C143.303 13.6655 144.173 12.6271 145.293 11.9282C146.432 11.2065 147.755 10.8307 149.102 10.8459C150.478 10.8459 151.663 11.0766 152.657 11.5379C153.577 11.9379 154.365 12.5956 154.925 13.4326C155.44 14.2264 155.71 15.1555 155.702 16.1034C155.713 16.9996 155.515 17.8858 155.125 18.6916C154.772 19.4357 154.223 20.0687 153.538 20.5225C152.871 20.9651 152.088 21.1975 151.289 21.1898C150.944 21.2005 150.599 21.1514 150.27 21.0447C149.887 20.8869 149.513 20.7076 149.149 20.5079C148.877 20.3716 148.686 20.2773 148.572 20.2178L146.785 22.5796ZM146.785 21.0041L148.46 18.8773C148.621 19.0061 148.799 19.1138 148.988 19.1979C149.123 19.2677 149.269 19.311 149.42 19.3256C149.836 19.3256 150.224 19.0949 150.575 18.6336C150.925 18.1722 151.11 17.3105 151.11 16.0469C151.11 14.7832 150.966 13.7837 150.663 13.0496C150.36 12.3155 149.767 11.947 148.918 11.947C148.281 11.947 147.809 12.1777 147.504 12.639C147.172 13.1413 146.967 13.7174 146.906 14.3176C146.821 15.1513 146.782 15.9893 146.79 16.8274V21.0041H146.785Z" fill="#C81F04"/>
<path d="M164.939 28.4857V12.3184H163.219C162.815 12.3009 162.412 12.3753 162.04 12.536C161.752 12.683 161.474 13.0331 161.206 13.5864C160.939 14.1396 160.663 14.9936 160.378 16.1484C160.29 16.5082 160.177 16.8616 160.041 17.206C159.96 17.3816 159.784 17.4686 159.511 17.4686C159.207 17.4686 159.01 17.3598 158.92 17.1422C158.817 16.8563 158.763 16.5552 158.759 16.2514C158.722 15.4712 158.563 14.7017 158.289 13.9708C158.222 13.7774 158.073 13.421 157.843 12.9016C157.613 12.3822 157.498 12.0302 157.498 11.8455C157.499 11.7167 157.524 11.5892 157.574 11.4705C157.624 11.3517 157.696 11.244 157.787 11.1534C157.979 10.9494 158.268 10.8469 158.653 10.8459C158.894 10.866 159.132 10.9088 159.365 10.9735C159.723 11.0509 160.103 11.1152 160.505 11.1665C161.049 11.2246 161.596 11.2503 162.143 11.2434H162.64C162.826 11.226 162.975 11.2173 163.086 11.2173H170.831C170.942 11.2173 171.094 11.226 171.29 11.2434H171.775C172.324 11.2517 172.873 11.2274 173.419 11.1709C173.832 11.1186 174.217 11.0543 174.573 10.9779C174.803 10.9129 175.037 10.8701 175.275 10.8502C175.659 10.8502 175.948 10.9528 176.14 11.1578C176.324 11.341 176.428 11.5898 176.429 11.8498C176.429 12.0539 176.321 12.3972 176.104 12.8798C175.886 13.363 175.736 13.7285 175.651 13.9752C175.364 14.701 175.195 15.4686 175.151 16.2485C175.151 17.06 174.91 17.4657 174.429 17.4657C174.338 17.4719 174.247 17.4559 174.164 17.419C174.08 17.3821 174.007 17.3255 173.95 17.2539C173.842 17.1081 173.762 16.9433 173.715 16.7679C173.664 16.5832 173.537 16.0899 173.333 15.2881C173.086 14.3828 172.818 13.7165 172.531 13.289C172.31 12.9198 171.97 12.6378 171.568 12.4896C171.099 12.3596 170.612 12.3009 170.125 12.3155H169.004V28.4857H171.169V29.5868H162.786V28.4857H164.939Z" fill="#C81F04"/>
<path d="M94.6967 0H90.4781V6.45879H93.2929V1.61325L95.6461 6.45879H96.8479L99.1722 1.60454V6.45879H102.138V0H98.2271L96.4453 3.75892L94.6967 0Z" fill="#0F0000"/>
<path d="M103.013 0L105.476 4.52057C105.649 4.82668 105.688 5.04574 105.598 5.20533L105.49 5.43745C105.447 5.49093 105.399 5.53958 105.346 5.58253C105.258 5.63629 105.159 5.66997 105.057 5.68118C104.902 5.70261 104.745 5.7123 104.588 5.71019H103.935V6.46314H106.032C106.898 6.46314 107.518 6.3993 107.891 6.27599C108.223 6.17717 108.503 5.9517 108.671 5.64781L111.866 0H108.928L107.601 3.21053L106.213 0H103.013Z" fill="#0F0000"/>
<path d="M115.992 0.689111H118.4V6.45879H121.582V0H112.809V6.45879H115.992V0.689111Z" fill="#0F0000"/>
<path d="M84.9653 3.26131H35.7674V3.98669H84.9653V3.26131Z" fill="#0F0000"/>
<path d="M176.233 3.21343H127.035V3.93881H176.233V3.21343Z" fill="#0F0000"/>
<path d="M176.233 36.5809H35.7674V37.3063H176.233V36.5809Z" fill="#0F0000"/>
</svg>
